<?xml version="1.0" encoding="utf-8"?>
<!-- Generator: Adobe Illustrator 16.0.0, SVG Export Plug-In . SVG Version: 6.00 Build 0)  -->
<!DOCTYPE svg PUBLIC "-//W3C//DTD SVG 1.1//EN" "http://www.w3.org/Graphics/SVG/1.1/DTD/svg11.dtd">
<svg version="1.1" id="Layer_1" xmlns="http://www.w3.org/2000/svg" xmlns:xlink="http://www.w3.org/1999/xlink" x="0px" y="0px"
	 width="500px" height="500px" viewBox="0 0 500 500" enable-background="new 0 0 500 500" xml:space="preserve">
<g id="icomoon-ignore">
</g>
<g>
	<path d="M148.721,500h327.86C489.494,500,500,489.492,500,476.581V148.722c0-0.266-0.124-0.484-0.14-0.733
		c-0.032-0.36-0.126-0.672-0.203-1.015c-0.266-1.108-0.719-2.108-1.405-2.982c-0.109-0.141-0.095-0.313-0.204-0.453L373.149,3.026
		c-0.047-0.046-0.109-0.046-0.156-0.094c-0.937-0.999-2.123-1.686-3.481-2.091c-0.297-0.094-0.563-0.125-0.874-0.172
		c-0.453-0.079-0.874-0.266-1.343-0.266H148.721c-12.911,0-23.418,10.507-23.418,23.418v452.759
		C125.303,489.492,135.81,500,148.721,500L148.721,500z M375.102,28.74l99.716,112.175h-91.91c-3.435,0-7.806-6.557-7.806-11.709
		V28.74z M140.915,23.822c0-4.309,3.513-7.806,7.806-7.806h210.767v113.189c0,12.631,10.227,27.322,23.419,27.322h101.481v320.053
		c0,4.309-3.514,7.806-7.808,7.806h-327.86c-4.372,0-7.806-3.434-7.806-7.806V23.822z"/>
	<path d="M291.317,383.499l57.638-194.605c1.223-4.131-1.136-8.478-5.269-9.702c-4.131-1.224-8.479,1.137-9.701,5.268
		l-57.638,194.605c-1.225,4.131,1.137,8.477,5.268,9.701C285.747,389.991,290.093,387.63,291.317,383.499z"/>
	<g>
		<path d="M363.866,221.086l68.764,69.254c3.042,3.051,7.986,3.06,11.039,0.019c3.053-3.043,3.061-7.988,0.02-11.041l-68.765-69.252
			c-3.042-3.053-7.988-3.061-11.039-0.019C360.832,213.088,360.824,218.034,363.866,221.086z"/>
		<path d="M363.885,359.843c3.051,3.041,7.997,3.034,11.039-0.021l68.765-69.251c3.041-3.053,3.033-7.997-0.02-11.04
			c-3.053-3.041-7.997-3.033-11.039,0.019l-68.764,69.253C360.824,351.855,360.832,356.8,363.885,359.843z"/>
	</g>
	<g>
		<path d="M260.522,210.046c-3.053-3.042-7.998-3.034-11.039,0.019l-68.765,69.252c-3.042,3.053-3.034,7.998,0.019,11.041
			c3.052,3.041,7.998,3.032,11.039-0.019l68.765-69.254C263.583,218.034,263.575,213.088,260.522,210.046z"/>
		<path d="M260.542,348.803l-68.765-69.253c-3.042-3.052-7.987-3.06-11.039-0.019c-3.053,3.043-3.061,7.987-0.019,11.04
			l68.765,69.251c3.041,3.055,7.986,3.062,11.039,0.021C263.575,356.8,263.583,351.855,260.542,348.803z"/>
	</g>
</g>
</svg>
