<?xml version="1.0" encoding="utf-8"?>
<!-- Generator: Adobe Illustrator 16.0.0, SVG Export Plug-In . SVG Version: 6.00 Build 0)  -->
<!DOCTYPE svg PUBLIC "-//W3C//DTD SVG 1.1//EN" "http://www.w3.org/Graphics/SVG/1.1/DTD/svg11.dtd">
<svg version="1.1" id="Layer_1" xmlns="http://www.w3.org/2000/svg" xmlns:xlink="http://www.w3.org/1999/xlink" x="0px" y="0px"
	 width="51.667px" height="51.658px" viewBox="0 0 51.667 51.658" enable-background="new 0 0 51.667 51.658" xml:space="preserve">
<path fill="#1B1B1C" d="M51.613,24.235C50.793,10.763,39.648,0.08,25.987,0h-0.309c-4.827,0.028-9.341,1.378-13.195,3.71
	c-3.557,2.151-6.553,5.136-8.718,8.685c-2.126,3.484-3.446,7.514-3.711,11.828C0.022,24.755,0,25.289,0,25.829
	s0.022,1.074,0.055,1.606c0.265,4.314,1.585,8.344,3.711,11.829c2.155,3.532,5.133,6.507,8.669,8.656
	c3.855,2.344,8.373,3.702,13.205,3.737h0.387c13.644-0.101,24.767-10.774,25.587-24.235c0.032-0.527,0.054-1.059,0.054-1.594
	S51.646,24.763,51.613,24.235z M25.856,33.677v0.051v0.086v0.013v0.038v0.013v0.086v0.052v3.55v0.095v0.055v0.312v2.113v1.782
	c0.206,5.034-1.227,5.883-2.947,5.957c-0.079,0.003-0.146,0.006-0.217,0.009c-9.818-1.386-17.577-9.171-18.927-19.002
	c-0.137-1-0.214-2.019-0.214-3.056s0.077-2.056,0.214-3.056c1.348-9.817,9.088-17.596,18.89-18.996
	c0.101,0.009,0.19,0.017,0.254,0.02c1.719,0.1,3.153,0.923,2.947,5.957v1.783v2.112v0.312v0.825v2.875v0.051v0.086v0.013v0.038
	v0.014v0.086v0.051c-0.022,3.387,1.93,6.622,4.009,7.839C27.786,27.054,25.834,29.887,25.856,33.677z"/>
</svg>
