<?xml version="1.0" encoding="utf-8"?>
<!-- Generator: Adobe Illustrator 16.0.0, SVG Export Plug-In . SVG Version: 6.00 Build 0)  -->
<!DOCTYPE svg PUBLIC "-//W3C//DTD SVG 1.1//EN" "http://www.w3.org/Graphics/SVG/1.1/DTD/svg11.dtd">
<svg version="1.1" id="Layer_1" xmlns="http://www.w3.org/2000/svg" xmlns:xlink="http://www.w3.org/1999/xlink" x="0px" y="0px"
	 width="500px" height="500px" viewBox="0 0 500 500" enable-background="new 0 0 500 500" xml:space="preserve">
<g id="icomoon-ignore">
</g>
<g>
	<path d="M101.721,500h327.86C442.494,500,453,489.492,453,476.581V148.722c0-0.266-0.124-0.484-0.14-0.733
		c-0.032-0.36-0.126-0.672-0.203-1.015c-0.267-1.108-0.72-2.108-1.405-2.982c-0.109-0.141-0.095-0.313-0.204-0.453L326.149,3.026
		c-0.048-0.046-0.109-0.046-0.156-0.094c-0.938-0.999-2.123-1.686-3.481-2.091c-0.297-0.094-0.563-0.125-0.874-0.172
		c-0.453-0.079-0.874-0.266-1.343-0.266H101.721c-12.911,0-23.418,10.507-23.418,23.418V476.58
		C78.303,489.492,88.81,500,101.721,500L101.721,500z M328.102,28.74l99.717,112.175h-91.91c-3.436,0-7.807-6.557-7.807-11.709
		V28.74z M93.915,23.822c0-4.309,3.513-7.806,7.806-7.806h210.767v113.189c0,12.631,10.227,27.322,23.419,27.322h101.48V476.58
		c0,4.309-3.514,7.806-7.808,7.806H101.72c-4.372,0-7.806-3.434-7.806-7.806L93.915,23.822L93.915,23.822z"/>
</g>
</svg>
