<?xml version="1.0" encoding="utf-8"?>
<!-- Generator: Adobe Illustrator 16.0.0, SVG Export Plug-In . SVG Version: 6.00 Build 0)  -->
<!DOCTYPE svg PUBLIC "-//W3C//DTD SVG 1.1//EN" "http://www.w3.org/Graphics/SVG/1.1/DTD/svg11.dtd">
<svg version="1.1" id="Layer_1" xmlns="http://www.w3.org/2000/svg" xmlns:xlink="http://www.w3.org/1999/xlink" x="0px" y="0px"
	 width="500px" height="500.832px" viewBox="0 0 500 500.832" enable-background="new 0 0 500 500.832" xml:space="preserve">
<g id="icomoon-ignore">
</g>
<path d="M9.454,87.518C-3.841,100.828-1,119.568,9.579,130.131c0.424,0.408,42.912,40.997,102.666,100.751
	c1.538,1.538,3.547,2.291,5.556,2.291s4.018-0.769,5.556-2.291c3.061-3.061,3.061-8.036,0-11.097
	c-9.009-9.009-17.579-17.532-25.709-25.599l24.94-24.941c3.061-3.061,3.061-8.036,0-11.097s-8.036-3.061-11.097,0l-25.003,25.003
	c-13.984-13.812-26.306-25.866-36.335-35.645l56.74-56.74c3.06-3.061,3.06-8.036,0-11.097c-3.061-3.06-8.037-3.06-11.097,0
	l-56.913,56.913c-11.552-11.191-18.207-17.548-18.316-17.657c-3.312-3.313-7.66-12.635,0-20.295l78.478-78.478
	c3.029-3.077,11.097-9.182,19.949-0.376c0.393,0.439,40.024,45.454,100.515,105.945c3.061,3.061,8.036,3.061,11.097,0
	s3.061-8.036,0-11.097C170.491,54.525,131.157,9.855,130.436,9.039c-14.628-14.597-32.271-10.218-42.488,0L9.454,87.518
	L9.454,87.518z M342.327,377.887c-3.061-3.061-8.036-3.061-11.097,0l-24.971,24.956c-7.613-7.707-15.602-15.774-24.015-24.187
	c-3.061-3.061-8.036-3.061-11.096,0c-3.061,3.061-3.061,8.036,0,11.097c58.136,58.121,98.741,101.535,99.322,102.163
	c5.383,5.399,12.761,8.366,20.766,8.366l0,0c8.24,0,16.574-3.218,21.738-8.397l78.448-79.373c9.873-9.873,10.438-26.62,1.224-35.864
	L387.389,271.408c-3.06-3.061-8.037-3.061-11.097,0c-3.061,3.061-3.061,8.036,0,11.097l105.255,105.239
	c3.139,3.14,2.542,9.92-1.24,13.703l-78.463,79.373c-1.805,1.821-5.901,3.767-10.61,3.767l0,0c-2.7,0-6.562-0.659-9.48-3.594
	c-0.158-0.173-6.734-7.189-18.145-19.133l57.195-57.195c3.061-3.061,3.061-8.036,0-11.097s-8.037-3.061-11.096,0l-56.96,56.959
	c-9.794-10.187-21.801-22.57-35.472-36.508l25.05-25.05C345.387,385.923,345.387,380.964,342.327,377.887L342.327,377.887z
	 M1.542,498.478c1.507,1.538,3.532,2.354,5.619,2.354c0.753,0,1.507-0.11,2.245-0.33l156.957-46.757
	c1.271-0.377,2.401-1.052,3.328-1.994l268.239-270.044c0.376-0.377,0.565-0.863,0.848-1.287l57.383-57.383
	c4.614-4.63,7.174-10.767,7.174-17.312c0-6.53-2.56-12.667-7.174-17.266L413.993,6.308c-9.228-9.229-25.348-9.229-34.577,0
	l-58.687,58.686c-0.376,0.377-0.581,0.863-0.863,1.303L51.22,334.96c-0.879,0.879-1.539,1.946-1.915,3.123L-0.294,490.566
	C-1.204,493.345-0.498,496.374,1.542,498.478L1.542,498.478z M326.725,81.632l16.308,16.308L99.39,342.243l-27.107-6.153
	L326.725,81.632z M109.184,354.658l244.962-245.606l38.235,38.234L145.205,391.291h-36.021V354.658L109.184,354.658z
	 M421.276,176.198L166.315,432.885l-9.056-31.423l246.218-243.079L421.276,176.198L421.276,176.198z M61.987,349.839l31.501,7.157
	v42.143c0,4.332,3.516,7.848,7.848,7.848h41.185l9.951,34.531L19.247,481.212L61.987,349.839L61.987,349.839z M390.528,17.405
	c3.312-3.312,9.072-3.312,12.384,0l82.167,82.167c1.648,1.648,2.558,3.845,2.558,6.184c0,2.323-0.91,4.536-2.574,6.2l-52.91,52.925
	l-94.535-94.535L390.528,17.405z"/>
</svg>
